<?xml version="1.0" encoding="UTF-8"?>
<svg width="700pt" height="700pt" version="1.1" viewBox="0 0 700 700" xmlns="http://www.w3.org/2000/svg">
 <g fill-rule="evenodd">
  <path d="m579.96 12.953c-3.5977-0.10156-6.8906 2.0156-8.2969 5.332-1.4023 3.3164-0.63281 7.1523 1.9414 9.6719l1.8477 1.8438-253.79 253.71 24.746 24.781 253.79-253.71 1.8477 1.8438h-0.003907c1.6289 1.6992 3.8711 2.6719 6.2227 2.6992 2.3555 0.023438 4.6211-0.89844 6.2852-2.5625s2.5859-3.9297 2.5625-6.2812c-0.027344-2.3555-1-4.5977-2.6992-6.2266l-28.438-28.473c-1.5859-1.625-3.7422-2.5664-6.0156-2.6289z"/>
  <path d="m309.29 295.89-30.965 30.969c-6.8359 6.8359-6.8359 17.906 0 24.746 6.8359 6.8359 17.91 6.8359 24.746 0l30.965-30.93z"/>
  <path d="m171.96 230.95c-7.0938-0.10156-13.926 2.6719-18.938 7.6914l-80.461 80.492h0.003906c-3.418 3.418-3.418 8.957 0 12.371l15.484 15.484 55.711-55.715 21.637 21.672-55.68 55.68 21.637 21.672 55.711-55.715 21.637 21.672-55.68 55.715 21.668 21.672 55.68-55.715 21.668 21.668-55.711 55.715 21.668 21.672 55.68-55.715 21.668 21.672-55.68 55.715 21.637 21.637 55.711-55.68 21.637 21.637-55.68 55.715 15.484 15.484 0.003906-0.011718c1.6406 1.6406 3.8672 2.5625 6.1875 2.5625s4.5469-0.92188 6.1875-2.5625l80.426-80.461c4.9297-4.9219 7.6992-11.605 7.6992-18.574s-2.7695-13.652-7.6992-18.578l-78.887-78.887c-8.082 8.7422-26.828 14.727-43.305 0-11.848-11.855-11.855-31.484 0-43.34l-78.922-78.953c-4.832-4.832-11.355-7.5938-18.184-7.6914z"/>
 </g>
</svg>
